# Blender v2.93.2 OBJ File: ''
# www.blender.org
mtllib teselation.mtl
o floor
v -1.519217 0.000000 2.532384
v -0.519217 0.000000 2.532384
v -1.519217 0.000000 1.532384
v -0.519217 0.000000 1.532384
v 0.520783 0.000000 -1.547616
v 1.520783 0.000000 -1.547616
v 0.520783 0.000000 -2.547616
v 1.520783 0.000000 -2.547616
v 1.540783 0.000000 -1.547616
v 2.540783 0.000000 -1.547616
v 1.540783 0.000000 -2.547616
v 2.540783 0.000000 -2.547616
v 0.520783 0.000000 -2.567616
v 1.520783 0.000000 -2.567616
v 0.520783 0.000000 -3.567616
v 1.520783 0.000000 -3.567616
v 1.540783 0.000000 -2.567616
v 2.540783 0.000000 -2.567616
v 1.540783 0.000000 -3.567616
v 2.540783 0.000000 -3.567616
v 2.560783 0.000000 -1.547616
v 3.560783 0.000000 -1.547616
v 2.560783 0.000000 -2.547616
v 3.560783 0.000000 -2.547616
v 2.560783 0.000000 -2.567616
v 3.560783 0.000000 -2.567616
v 2.560783 0.000000 -3.567616
v 3.560783 0.000000 -3.567616
v 0.520783 0.000000 0.492384
v 1.520783 0.000000 0.492384
v 0.520783 0.000000 -0.507616
v 1.520783 0.000000 -0.507616
v 1.540783 0.000000 0.492384
v 2.540783 0.000000 0.492384
v 1.540783 0.000000 -0.507616
v 2.540783 0.000000 -0.507616
v 1.540783 0.000000 -0.527616
v 2.540783 0.000000 -0.527616
v 1.540783 0.000000 -1.527616
v 2.540783 0.000000 -1.527616
v 0.520783 0.000000 -0.527616
v 1.520783 0.000000 -0.527616
v 0.520783 0.000000 -1.527616
v 1.520783 0.000000 -1.527616
v 2.560783 0.000000 -0.527616
v 3.560783 0.000000 -0.527616
v 2.560783 0.000000 -1.527616
v 3.560783 0.000000 -1.527616
v 2.560783 0.000000 0.492384
v 3.560783 0.000000 0.492384
v 2.560783 0.000000 -0.507616
v 3.560783 0.000000 -0.507616
v 0.520783 0.000000 2.532384
v 1.520783 0.000000 2.532384
v 0.520783 0.000000 1.532384
v 1.520783 0.000000 1.532384
v 1.540783 0.000000 2.532384
v 2.540783 0.000000 2.532384
v 1.540783 0.000000 1.532384
v 2.540783 0.000000 1.532384
v 1.540783 0.000000 1.512384
v 2.540783 0.000000 1.512384
v 1.540783 0.000000 0.512384
v 2.540783 0.000000 0.512384
v 0.520783 0.000000 1.512384
v 1.520783 0.000000 1.512384
v 0.520783 0.000000 0.512384
v 1.520783 0.000000 0.512384
v 2.560783 0.000000 1.512384
v 3.560783 0.000000 1.512384
v 2.560783 0.000000 0.512384
v 3.560783 0.000000 0.512384
v 2.560783 0.000000 2.532384
v 3.560783 0.000000 2.532384
v 2.560783 0.000000 1.532384
v 3.560783 0.000000 1.532384
v 2.560783 0.000000 3.552384
v 3.560783 0.000000 3.552384
v 2.560783 0.000000 2.552384
v 3.560783 0.000000 2.552384
v 0.520783 0.000000 3.552384
v 1.520783 0.000000 3.552384
v 0.520783 0.000000 2.552384
v 1.520783 0.000000 2.552384
v 1.540783 0.000000 3.552384
v 2.540783 0.000000 3.552384
v 1.540783 0.000000 2.552384
v 2.540783 0.000000 2.552384
v -3.559216 0.000000 -1.547616
v -2.559216 0.000000 -1.547616
v -3.559216 0.000000 -2.547616
v -2.559216 0.000000 -2.547616
v -2.539217 0.000000 -1.547616
v -1.539217 0.000000 -1.547616
v -2.539217 0.000000 -2.547616
v -1.539217 0.000000 -2.547616
v -2.539217 0.000000 -2.567616
v -1.539217 0.000000 -2.567616
v -2.539217 0.000000 -3.567616
v -1.539217 0.000000 -3.567616
v -3.559216 0.000000 -2.567616
v -2.559216 0.000000 -2.567616
v -3.559216 0.000000 -3.567616
v -2.559216 0.000000 -3.567616
v -1.519217 0.000000 -2.567616
v -0.519217 0.000000 -2.567616
v -1.519217 0.000000 -3.567616
v -0.519217 0.000000 -3.567616
v -0.499217 0.000000 -2.567616
v 0.500783 0.000000 -2.567616
v -0.499217 0.000000 -3.567616
v 0.500783 0.000000 -3.567616
v -0.499217 0.000000 -1.547616
v 0.500783 0.000000 -1.547616
v -0.499217 0.000000 -2.547616
v 0.500783 0.000000 -2.547616
v -1.519217 0.000000 -1.547616
v -0.519217 0.000000 -1.547616
v -1.519217 0.000000 -2.547616
v -0.519217 0.000000 -2.547616
v -1.519217 0.000000 0.492384
v -0.519217 0.000000 0.492384
v -1.519217 0.000000 -0.507616
v -0.519217 0.000000 -0.507616
v -0.499217 0.000000 0.492384
v 0.500783 0.000000 0.492384
v -0.499217 0.000000 -0.507616
v 0.500783 0.000000 -0.507616
v -0.499217 0.000000 -0.527616
v 0.500783 0.000000 -0.527616
v -0.499217 0.000000 -1.527616
v 0.500783 0.000000 -1.527616
v -1.519217 0.000000 -0.527616
v -0.519217 0.000000 -0.527616
v -1.519217 0.000000 -1.527616
v -0.519217 0.000000 -1.527616
v -3.559216 0.000000 -0.527616
v -2.559216 0.000000 -0.527616
v -3.559216 0.000000 -1.527616
v -2.559216 0.000000 -1.527616
v -2.539217 0.000000 -0.527616
v -1.539217 0.000000 -0.527616
v -2.539217 0.000000 -1.527616
v -1.539217 0.000000 -1.527616
v -2.539217 0.000000 0.492384
v -1.539217 0.000000 0.492384
v -2.539217 0.000000 -0.507616
v -1.539217 0.000000 -0.507616
v -3.559216 0.000000 0.492384
v -2.559216 0.000000 0.492384
v -3.559216 0.000000 -0.507616
v -2.559216 0.000000 -0.507616
v -2.539217 0.000000 3.552384
v -1.539217 0.000000 3.552384
v -2.539217 0.000000 2.552384
v -1.539217 0.000000 2.552384
v -3.559216 0.000000 3.552384
v -2.559216 0.000000 3.552384
v -3.559216 0.000000 2.552384
v -2.559216 0.000000 2.552384
v -1.519217 0.000000 3.552384
v -0.519217 0.000000 3.552384
v -1.519217 0.000000 2.552384
v -0.519217 0.000000 2.552384
v -0.499217 0.000000 3.552384
v 0.500783 0.000000 3.552384
v -0.499217 0.000000 2.552384
v 0.500783 0.000000 2.552384
v -0.499217 0.000000 2.532384
v 0.500783 0.000000 2.532384
v -0.499217 0.000000 1.532384
v 0.500783 0.000000 1.532384
v -0.499217 0.000000 1.512384
v 0.500783 0.000000 1.512384
v -0.499217 0.000000 0.512384
v 0.500783 0.000000 0.512384
v -1.519217 0.000000 1.512384
v -0.519217 0.000000 1.512384
v -1.519217 0.000000 0.512384
v -0.519217 0.000000 0.512384
v -3.559216 0.000000 1.512384
v -2.559216 0.000000 1.512384
v -3.559216 0.000000 0.512384
v -2.559216 0.000000 0.512384
v -2.539217 0.000000 1.512384
v -1.539217 0.000000 1.512384
v -2.539217 0.000000 0.512384
v -1.539217 0.000000 0.512384
v -2.539217 0.000000 2.532384
v -1.539217 0.000000 2.532384
v -2.539217 0.000000 1.532384
v -1.539217 0.000000 1.532384
v -3.559216 0.000000 2.532384
v -2.559216 0.000000 2.532384
v -3.559216 0.000000 1.532384
v -2.559216 0.000000 1.532384
vt 1.000000 0.000000
vt 0.000000 1.000000
vt 0.000000 0.000000
vt 1.000000 0.000000
vt 0.000000 1.000000
vt 0.000000 0.000000
vt 1.000000 0.000000
vt 0.000000 1.000000
vt 0.000000 0.000000
vt 1.000000 0.000000
vt 0.000000 1.000000
vt 0.000000 0.000000
vt 1.000000 0.000000
vt 0.000000 1.000000
vt 0.000000 0.000000
vt 1.000000 0.000000
vt 0.000000 1.000000
vt 0.000000 0.000000
vt 1.000000 0.000000
vt 0.000000 1.000000
vt 0.000000 0.000000
vt 1.000000 0.000000
vt 0.000000 1.000000
vt 0.000000 0.000000
vt 1.000000 0.000000
vt 0.000000 1.000000
vt 0.000000 0.000000
vt 1.000000 0.000000
vt 0.000000 1.000000
vt 0.000000 0.000000
vt 1.000000 0.000000
vt 0.000000 1.000000
vt 0.000000 0.000000
vt 1.000000 0.000000
vt 0.000000 1.000000
vt 0.000000 0.000000
vt 1.000000 0.000000
vt 0.000000 1.000000
vt 0.000000 0.000000
vt 1.000000 0.000000
vt 0.000000 1.000000
vt 0.000000 0.000000
vt 1.000000 0.000000
vt 0.000000 1.000000
vt 0.000000 0.000000
vt 1.000000 0.000000
vt 0.000000 1.000000
vt 0.000000 0.000000
vt 1.000000 0.000000
vt 0.000000 1.000000
vt 0.000000 0.000000
vt 1.000000 0.000000
vt 0.000000 1.000000
vt 0.000000 0.000000
vt 1.000000 0.000000
vt 0.000000 1.000000
vt 0.000000 0.000000
vt 1.000000 0.000000
vt 0.000000 1.000000
vt 0.000000 0.000000
vt 1.000000 0.000000
vt 0.000000 1.000000
vt 0.000000 0.000000
vt 1.000000 0.000000
vt 0.000000 1.000000
vt 0.000000 0.000000
vt 1.000000 0.000000
vt 0.000000 1.000000
vt 0.000000 0.000000
vt 1.000000 0.000000
vt 0.000000 1.000000
vt 0.000000 0.000000
vt 1.000000 0.000000
vt 0.000000 1.000000
vt 0.000000 0.000000
vt 1.000000 0.000000
vt 0.000000 1.000000
vt 0.000000 0.000000
vt 1.000000 0.000000
vt 0.000000 1.000000
vt 0.000000 0.000000
vt 1.000000 0.000000
vt 0.000000 1.000000
vt 0.000000 0.000000
vt 1.000000 0.000000
vt 0.000000 1.000000
vt 0.000000 0.000000
vt 1.000000 0.000000
vt 0.000000 1.000000
vt 0.000000 0.000000
vt 1.000000 0.000000
vt 0.000000 1.000000
vt 0.000000 0.000000
vt 1.000000 0.000000
vt 0.000000 1.000000
vt 0.000000 0.000000
vt 1.000000 0.000000
vt 0.000000 1.000000
vt 0.000000 0.000000
vt 1.000000 0.000000
vt 0.000000 1.000000
vt 0.000000 0.000000
vt 1.000000 0.000000
vt 0.000000 1.000000
vt 0.000000 0.000000
vt 1.000000 0.000000
vt 0.000000 1.000000
vt 0.000000 0.000000
vt 1.000000 0.000000
vt 0.000000 1.000000
vt 0.000000 0.000000
vt 1.000000 0.000000
vt 0.000000 1.000000
vt 0.000000 0.000000
vt 1.000000 0.000000
vt 0.000000 1.000000
vt 0.000000 0.000000
vt 1.000000 0.000000
vt 0.000000 1.000000
vt 0.000000 0.000000
vt 1.000000 0.000000
vt 0.000000 1.000000
vt 0.000000 0.000000
vt 1.000000 0.000000
vt 0.000000 1.000000
vt 0.000000 0.000000
vt 1.000000 0.000000
vt 0.000000 1.000000
vt 0.000000 0.000000
vt 1.000000 0.000000
vt 0.000000 1.000000
vt 0.000000 0.000000
vt 1.000000 0.000000
vt 0.000000 1.000000
vt 0.000000 0.000000
vt 1.000000 0.000000
vt 0.000000 1.000000
vt 0.000000 0.000000
vt 1.000000 0.000000
vt 0.000000 1.000000
vt 0.000000 0.000000
vt 1.000000 0.000000
vt 0.000000 1.000000
vt 0.000000 0.000000
vt 1.000000 0.000000
vt 0.000000 1.000000
vt 0.000000 0.000000
vt 1.000000 1.000000
vt 1.000000 1.000000
vt 1.000000 1.000000
vt 1.000000 1.000000
vt 1.000000 1.000000
vt 1.000000 1.000000
vt 1.000000 1.000000
vt 1.000000 1.000000
vt 1.000000 1.000000
vt 1.000000 1.000000
vt 1.000000 1.000000
vt 1.000000 1.000000
vt 1.000000 1.000000
vt 1.000000 1.000000
vt 1.000000 1.000000
vt 1.000000 1.000000
vt 1.000000 1.000000
vt 1.000000 1.000000
vt 1.000000 1.000000
vt 1.000000 1.000000
vt 1.000000 1.000000
vt 1.000000 1.000000
vt 1.000000 1.000000
vt 1.000000 1.000000
vt 1.000000 1.000000
vt 1.000000 1.000000
vt 1.000000 1.000000
vt 1.000000 1.000000
vt 1.000000 1.000000
vt 1.000000 1.000000
vt 1.000000 1.000000
vt 1.000000 1.000000
vt 1.000000 1.000000
vt 1.000000 1.000000
vt 1.000000 1.000000
vt 1.000000 1.000000
vt 1.000000 1.000000
vt 1.000000 1.000000
vt 1.000000 1.000000
vt 1.000000 1.000000
vt 1.000000 1.000000
vt 1.000000 1.000000
vt 1.000000 1.000000
vt 1.000000 1.000000
vt 1.000000 1.000000
vt 1.000000 1.000000
vt 1.000000 1.000000
vt 1.000000 1.000000
vt 1.000000 1.000000
vn 0.0000 1.0000 0.0000
g floor_plane_grass
usemtl grass
s off
f 2/1/1 3/2/1 1/3/1
f 6/4/1 7/5/1 5/6/1
f 10/7/1 11/8/1 9/9/1
f 14/10/1 15/11/1 13/12/1
f 18/13/1 19/14/1 17/15/1
f 22/16/1 23/17/1 21/18/1
f 26/19/1 27/20/1 25/21/1
f 30/22/1 31/23/1 29/24/1
f 34/25/1 35/26/1 33/27/1
f 38/28/1 39/29/1 37/30/1
f 42/31/1 43/32/1 41/33/1
f 46/34/1 47/35/1 45/36/1
f 50/37/1 51/38/1 49/39/1
f 54/40/1 55/41/1 53/42/1
f 58/43/1 59/44/1 57/45/1
f 62/46/1 63/47/1 61/48/1
f 66/49/1 67/50/1 65/51/1
f 70/52/1 71/53/1 69/54/1
f 74/55/1 75/56/1 73/57/1
f 78/58/1 79/59/1 77/60/1
f 82/61/1 83/62/1 81/63/1
f 86/64/1 87/65/1 85/66/1
f 90/67/1 91/68/1 89/69/1
f 94/70/1 95/71/1 93/72/1
f 98/73/1 99/74/1 97/75/1
f 102/76/1 103/77/1 101/78/1
f 106/79/1 107/80/1 105/81/1
f 110/82/1 111/83/1 109/84/1
f 114/85/1 115/86/1 113/87/1
f 118/88/1 119/89/1 117/90/1
f 122/91/1 123/92/1 121/93/1
f 126/94/1 127/95/1 125/96/1
f 130/97/1 131/98/1 129/99/1
f 134/100/1 135/101/1 133/102/1
f 138/103/1 139/104/1 137/105/1
f 142/106/1 143/107/1 141/108/1
f 146/109/1 147/110/1 145/111/1
f 150/112/1 151/113/1 149/114/1
f 154/115/1 155/116/1 153/117/1
f 158/118/1 159/119/1 157/120/1
f 162/121/1 163/122/1 161/123/1
f 166/124/1 167/125/1 165/126/1
f 170/127/1 171/128/1 169/129/1
f 174/130/1 175/131/1 173/132/1
f 178/133/1 179/134/1 177/135/1
f 182/136/1 183/137/1 181/138/1
f 186/139/1 187/140/1 185/141/1
f 190/142/1 191/143/1 189/144/1
f 194/145/1 195/146/1 193/147/1
f 2/1/1 4/148/1 3/2/1
f 6/4/1 8/149/1 7/5/1
f 10/7/1 12/150/1 11/8/1
f 14/10/1 16/151/1 15/11/1
f 18/13/1 20/152/1 19/14/1
f 22/16/1 24/153/1 23/17/1
f 26/19/1 28/154/1 27/20/1
f 30/22/1 32/155/1 31/23/1
f 34/25/1 36/156/1 35/26/1
f 38/28/1 40/157/1 39/29/1
f 42/31/1 44/158/1 43/32/1
f 46/34/1 48/159/1 47/35/1
f 50/37/1 52/160/1 51/38/1
f 54/40/1 56/161/1 55/41/1
f 58/43/1 60/162/1 59/44/1
f 62/46/1 64/163/1 63/47/1
f 66/49/1 68/164/1 67/50/1
f 70/52/1 72/165/1 71/53/1
f 74/55/1 76/166/1 75/56/1
f 78/58/1 80/167/1 79/59/1
f 82/61/1 84/168/1 83/62/1
f 86/64/1 88/169/1 87/65/1
f 90/67/1 92/170/1 91/68/1
f 94/70/1 96/171/1 95/71/1
f 98/73/1 100/172/1 99/74/1
f 102/76/1 104/173/1 103/77/1
f 106/79/1 108/174/1 107/80/1
f 110/82/1 112/175/1 111/83/1
f 114/85/1 116/176/1 115/86/1
f 118/88/1 120/177/1 119/89/1
f 122/91/1 124/178/1 123/92/1
f 126/94/1 128/179/1 127/95/1
f 130/97/1 132/180/1 131/98/1
f 134/100/1 136/181/1 135/101/1
f 138/103/1 140/182/1 139/104/1
f 142/106/1 144/183/1 143/107/1
f 146/109/1 148/184/1 147/110/1
f 150/112/1 152/185/1 151/113/1
f 154/115/1 156/186/1 155/116/1
f 158/118/1 160/187/1 159/119/1
f 162/121/1 164/188/1 163/122/1
f 166/124/1 168/189/1 167/125/1
f 170/127/1 172/190/1 171/128/1
f 174/130/1 176/191/1 175/131/1
f 178/133/1 180/192/1 179/134/1
f 182/136/1 184/193/1 183/137/1
f 186/139/1 188/194/1 187/140/1
f 190/142/1 192/195/1 191/143/1
f 194/145/1 196/196/1 195/146/1
