# Blender v2.93.2 OBJ File: 'mountain_1.blend'
# www.blender.org
mtllib mountain.mtl
o mountiain_mountain
v -0.305628 0.000000 0.305628
v 0.270874 0.000000 0.251266
v -0.305628 0.000000 -0.305628
v 0.305628 0.000000 -0.305628
v -0.305628 0.000000 0.000000
v -0.034754 0.000000 0.251266
v 0.270874 0.000000 -0.054361
v 0.000000 0.000000 -0.305628
v -0.305628 0.000000 0.152814
v 0.118060 0.000000 0.251266
v 0.270874 0.000000 -0.207175
v -0.152814 0.000000 -0.305628
v -0.305628 0.000000 -0.152814
v -0.152814 0.000000 0.305628
v 0.270874 0.000000 0.098453
v 0.152814 0.000000 -0.305628
v -0.027379 0.162652 -0.204176
v -0.027379 0.115817 0.204176
v -0.231556 0.162652 0.000000
v 0.142043 0.162652 -0.054361
v 0.142043 0.108909 0.149815
v -0.231556 0.162652 0.204176
v -0.231556 0.162652 -0.204176
v 0.176797 0.162652 -0.204176
v -0.027379 0.304274 0.073069
v 0.045690 0.304274 0.000000
v -0.027379 0.358017 -0.073069
v -0.100449 0.358017 0.000000
v 0.142043 0.108909 0.047727
v 0.039955 0.108909 0.149815
v -0.231556 0.162652 0.102088
v -0.129468 0.162652 0.204176
v -0.231556 0.162652 -0.102088
v -0.129468 0.162652 -0.204176
v 0.142043 0.162652 -0.156449
v 0.074709 0.162652 -0.204176
v 0.045690 0.358017 -0.073069
v -0.100449 0.358017 -0.073069
v 0.045690 0.249890 0.073069
v -0.100449 0.304274 0.073069
v -0.027379 0.425506 -0.021886
v -0.027379 0.304274 0.073069
v 0.045690 0.304274 0.000000
v -0.027379 0.358017 -0.073069
v -0.100449 0.358017 0.000000
v 0.045690 0.358017 -0.073069
v -0.100449 0.358017 -0.073069
v 0.045690 0.249890 0.073069
v -0.100449 0.304274 0.073069
vt 1.000000 0.750000
vt 0.750000 1.000000
vt 0.750000 0.750000
vt 0.500000 0.750000
vt 0.500000 1.000000
vt 0.250000 1.000000
vt 1.000000 0.500000
vt 0.750000 0.500000
vt 0.750000 0.375000
vt 0.625000 0.375000
vt 0.625000 0.500000
vt 0.750000 0.000000
vt 0.750000 0.250000
vt 0.625000 0.250000
vt 1.000000 0.000000
vt 0.250000 0.375000
vt 0.250000 0.500000
vt 0.000000 0.500000
vt 0.000000 0.000000
vt 0.250000 0.250000
vt 0.000000 0.250000
vt 0.375000 0.250000
vt 0.250000 0.000000
vt 0.500000 0.250000
vt 0.250000 0.750000
vt 0.000000 1.000000
vt 0.000000 0.750000
vt 0.250000 0.625000
vt 0.375000 0.625000
vt 0.375000 0.750000
vt 0.625000 0.750000
vt 0.750000 0.625000
vt 0.625000 0.625000
vt 0.500000 0.625000
vt 0.500000 0.375000
vt 0.375000 0.375000
vt 1.000000 1.000000
vt 1.000000 0.250000
vt 0.500000 0.000000
vt 0.375000 0.500000
vt 0.500000 0.375000
vt 0.375000 0.500000
vt 0.375000 0.375000
vt 0.500000 0.500000
vt 0.625000 0.625000
vt 0.500000 0.625000
vt 0.375000 0.625000
vt 0.625000 0.500000
vt 0.625000 0.375000
vn 0.5978 0.3590 -0.7168
vn 0.0000 0.5292 -0.8485
vn 0.7451 0.5902 0.3107
vn 0.8347 0.4417 0.3288
vn 0.0000 0.6816 0.7317
vn -0.9101 0.4144 0.0000
vn 0.2257 0.4920 0.8408
vn 0.0000 0.5572 -0.8304
vn 0.4885 0.5351 -0.6892
vn 0.7353 0.4154 0.5354
vn 0.8351 0.4431 0.3259
vn 0.0000 1.0000 0.0000
vn -0.8304 0.5572 0.0000
vn 0.3912 0.5256 0.7555
vn 0.6661 0.3355 0.6661
vn -0.7338 0.6793 0.0000
vn 0.0000 0.6793 0.7338
vn 0.6456 0.7637 0.0000
vn 0.8171 0.5102 0.2686
vn 0.6225 0.2604 0.7380
vn 0.0000 0.5292 0.8485
vn 0.3957 0.3242 0.8593
vn 0.7839 0.6209 0.0000
vn 0.8969 0.4423 0.0000
vn -0.6118 0.5014 -0.6118
vn 0.6081 0.3603 0.7074
vn -0.7683 0.5156 0.3792
vn -0.5523 0.6245 0.5523
vn 0.2534 0.5524 0.7941
vn 0.0000 0.8056 0.5925
vn 0.0000 0.6043 -0.7968
vn 0.6186 0.4845 0.6186
vn -0.3166 0.5849 0.7468
vn 0.7572 0.5262 0.3870
vn -0.6232 0.4726 -0.6232
vn 0.5126 0.6888 0.5126
g mountiain_mountain_grass
usemtl grass
s off
f 11/1/1 16/2/1 24/3/1
f 17/4/2 8/5/2 12/6/2
f 7/7/3 20/8/3 29/9/3
f 39/10/4 20/8/4 26/11/4
f 10/12/5 21/13/5 30/14/5
f 2/15/5 21/13/5 10/12/5
f 31/16/6 19/17/6 5/18/6
f 1/19/6 22/20/6 9/21/6
f 32/22/7 14/23/7 18/24/7
f 23/25/6 3/26/6 13/27/6
f 33/28/6 23/25/6 13/27/6
f 38/29/8 17/4/8 34/30/8
f 36/31/2 16/2/2 8/5/2
f 35/32/9 36/31/9 37/33/9
f 11/1/10 24/3/10 35/32/10
f 37/33/8 17/4/8 27/34/8
f 20/8/11 37/33/11 26/11/11
f 33/28/12 34/30/12 23/25/12
f 19/17/13 38/29/13 33/28/13
f 18/24/14 39/10/14 25/35/14
f 30/14/15 29/9/15 39/10/15
f 40/36/16 19/17/16 31/16/16
f 32/22/12 31/16/12 22/20/12
f 32/22/17 25/35/17 40/36/17
f 11/1/12 4/37/12 16/2/12
f 12/6/2 23/25/2 34/30/2
f 34/30/2 17/4/2 12/6/2
f 29/9/18 21/13/18 15/38/18
f 15/38/18 7/7/18 29/9/18
f 39/10/19 29/9/19 20/8/19
f 18/24/20 6/39/20 30/14/20
f 6/39/5 10/12/5 30/14/5
f 2/15/18 15/38/18 21/13/18
f 5/18/6 9/21/6 31/16/6
f 9/21/6 22/20/6 31/16/6
f 1/19/21 14/23/21 22/20/21
f 22/20/21 14/23/21 32/22/21
f 14/23/22 6/39/22 18/24/22
f 23/25/2 12/6/2 3/26/2
f 13/27/6 5/18/6 33/28/6
f 5/18/6 19/17/6 33/28/6
f 38/29/8 27/34/8 17/4/8
f 8/5/2 17/4/2 36/31/2
f 36/31/2 24/3/2 16/2/2
f 35/32/12 24/3/12 36/31/12
f 35/32/23 20/8/23 7/7/23
f 7/7/23 11/1/23 35/32/23
f 37/33/8 36/31/8 17/4/8
f 20/8/24 35/32/24 37/33/24
f 33/28/25 38/29/25 34/30/25
f 19/17/13 28/40/13 38/29/13
f 18/24/26 30/14/26 39/10/26
f 30/14/12 21/13/12 29/9/12
f 40/36/27 28/40/27 19/17/27
f 32/22/28 40/36/28 31/16/28
f 32/22/29 18/24/29 25/35/29
g mountiain_mountain_snow
usemtl snow
f 42/41/30 45/42/30 49/43/30
f 41/44/31 46/45/31 44/46/31
f 45/42/12 44/46/12 47/47/12
f 42/41/32 43/48/32 41/44/32
f 42/41/33 41/44/33 45/42/33
f 41/44/34 43/48/34 46/45/34
f 45/42/35 41/44/35 44/46/35
f 42/41/36 48/49/36 43/48/36
